<svg xmlns="http://www.w3.org/2000/svg" xmlns:xlink="http://www.w3.org/1999/xlink" width="48" height="48" viewBox="0 0 48 48"><defs><path id="e28ua" d="M768 9927a1 1 0 0 0-1-1h-2a1 1 0 0 0-1 1v26a1 1 0 0 0 1 1h2a1 1 0 0 0 1-1z"/><path id="e28ub" d="M770.586 9932.586a2 2 0 0 1 2.828 2.828l-12 12a2 2 0 0 1-2.765.06l-12-11a2 2 0 1 1 2.702-2.948l10.589 9.706z"/></defs><g><g transform="translate(-742 -9916)"><g/><g opacity=".3" transform="rotate(-90 766 9940)"><use xlink:href="#e28ua"/></g><g transform="rotate(90 760 9940)"><use xlink:href="#e28ub"/></g></g></g></svg>